# xmcd CD database file
#
# Track frame offsets:
#	150
#	10032
#	18722
#	32822
#	43525
#	54782
#	67230
#	75555
#	83070
#	90285
#	100602
#	110175
#	123945
#	135490
#	147775
#	157772
#	171240
#	178830
#	191157
#	204437
#	218052
#	229990
#	237620
#	248245
#	255707
#
# Disc length: 3593 seconds
#
# Revision: 0
# Processed by: cddbd v1.5.1PL0 Copyright (c) Steve Scherf et al.
# Submitted via: CDex 1.51
#
DISCID=520e0719
DTITLE=Various Artist - マザーグース〜英語のうた〜　DISK1
DYEAR=1996
DGENRE=Country
TTITLE0=アルファベットのうた
TTITLE1=ビンゴ
TTITLE2=10人のインディアン
TTITLE3=ひと月は何日あるの？
TTITLE4=お誕生日のうた
TTITLE5=ボリーちゃん、やかんをかけてね
TTITLE6=マフィン売り
TTITLE7=パン屋さん、パン屋さん
TTITLE8=ホット・クロス・ハンズ
TTITLE9=熱い豆プディング
TTITLE10=何してるのおじょうさん
TTITLE11=山のむこうから
TTITLE12=ゆかいな牧場
TTITLE13=ロンドン橋
TTITLE14=太郎さんの赤ちゃん
TTITLE15=幸せなら手をたたこう
TTITLE16=さあ、外で遊ぼう
TTITLE17=頭と肩、ひざとつま先
TTITLE18=ホーキ・コーキ
TTITLE19=オレンジとレモン
TTITLE20=手をたたいて、ぐるっとまわって
TTITLE21=スキップ・トゥ・マイ・ルー
TTITLE22=心配事ははねのけて・・・!
TTITLE23=赤い2階立てバスにのって行こう
TTITLE24=ドレミの歌
EXTD=YEAR: 1996
EXTT0=
EXTT1=
EXTT2=
EXTT3=
EXTT4=
EXTT5=
EXTT6=
EXTT7=
EXTT8=
EXTT9=
EXTT10=
EXTT11=
EXTT12=
EXTT13=
EXTT14=
EXTT15=
EXTT16=
EXTT17=
EXTT18=
EXTT19=
EXTT20=
EXTT21=
EXTT22=
EXTT23=
EXTT24=
PLAYORDER=
